# xmcd CD database file
#
# Track frame offsets:
#	150
#	27625
#	42687
#	58080
#	74932
#	95267
#	114707
#	133965
#	150577
#
# Disc length: 2250 seconds
#
# Revision: 3
# Processed by: cddbd v1.5.1PL0 Copyright (c) Steve Scherf et al.
# Submitted via: CDex 1.51
#
DISCID=8e08c809
DTITLE=Millenium - Millenium
DYEAR=1997
DGENRE=Hard Rock
TTITLE0=Together As One
TTITLE1=Believe In Love
TTITLE2=Marianne
TTITLE3=Come Back
TTITLE4=Almost Made It To Heaven
TTITLE5=Hold On
TTITLE6=Gabriella
TTITLE7=Gonna Let You Go
TTITLE8=Invincible
EXTD=YEAR: 1997
EXTT0=
EXTT1=
EXTT2=
EXTT3=
EXTT4=
EXTT5=
EXTT6=
EXTT7=
EXTT8=
PLAYORDER=
